<?xml version="1.0" encoding="UTF-8" standalone="no"?>
<!-- Created with Inkscape (http://www.inkscape.org/) -->

<svg
   xmlns:osb="http://www.openswatchbook.org/uri/2009/osb"
   xmlns:dc="http://purl.org/dc/elements/1.1/"
   xmlns:cc="http://creativecommons.org/ns#"
   xmlns:rdf="http://www.w3.org/1999/02/22-rdf-syntax-ns#"
   xmlns:svg="http://www.w3.org/2000/svg"
   xmlns="http://www.w3.org/2000/svg"
   xmlns:sodipodi="http://sodipodi.sourceforge.net/DTD/sodipodi-0.dtd"
   xmlns:inkscape="http://www.inkscape.org/namespaces/inkscape"
   width="210mm"
   height="297mm"
   viewBox="0 0 210 297"
   version="1.1"
   id="svg8"
   inkscape:version="0.92.1 r15371"
   sodipodi:docname="emersyx-logo.svg"
   style="enable-background:new"
   inkscape:export-filename="/home/alegen/emersyx logo/emersyx-logo.png"
   inkscape:export-xdpi="93.129997"
   inkscape:export-ydpi="93.129997">
  <defs
     id="defs2">
    <inkscape:perspective
       sodipodi:type="inkscape:persp3d"
       inkscape:vp_x="0 : 148.5 : 1"
       inkscape:vp_y="0 : 1000 : 0"
       inkscape:vp_z="210 : 148.5 : 1"
       inkscape:persp3d-origin="105 : 99 : 1"
       id="perspective5052" />
    <inkscape:path-effect
       effect="spiro"
       id="path-effect6339"
       is_visible="true" />
    <inkscape:path-effect
       effect="spiro"
       id="path-effect6335"
       is_visible="true" />
    <linearGradient
       id="linearGradient4596"
       osb:paint="solid">
      <stop
         style="stop-color:#000000;stop-opacity:1;"
         offset="0"
         id="stop4594" />
    </linearGradient>
    <inkscape:path-effect
       effect="spiro"
       id="path-effect4560"
       is_visible="true" />
    <inkscape:path-effect
       effect="spiro"
       id="path-effect4541"
       is_visible="true" />
  </defs>
  <sodipodi:namedview
     id="base"
     pagecolor="#ffffff"
     bordercolor="#666666"
     borderopacity="1.0"
     inkscape:pageopacity="0.0"
     inkscape:pageshadow="2"
     inkscape:zoom="0.78552644"
     inkscape:cx="264.50023"
     inkscape:cy="581.1784"
     inkscape:document-units="mm"
     inkscape:current-layer="layer4"
     showgrid="false"
     showguides="false"
     inkscape:snap-to-guides="false"
     inkscape:snap-grids="false"
     inkscape:snap-page="false"
     inkscape:snap-global="false"
     inkscape:window-width="1920"
     inkscape:window-height="1043"
     inkscape:window-x="0"
     inkscape:window-y="18"
     inkscape:window-maximized="0"
     units="mm" />
  <metadata
     id="metadata5">
    <rdf:RDF>
      <cc:Work
         rdf:about="">
        <dc:format>image/svg+xml</dc:format>
        <dc:type
           rdf:resource="http://purl.org/dc/dcmitype/StillImage" />
        <dc:title></dc:title>
      </cc:Work>
    </rdf:RDF>
  </metadata>
  <g
     inkscape:label="e"
     inkscape:groupmode="layer"
     id="layer1"
     style="display:inline"
     sodipodi:insensitive="true">
    <path
       style="fill:#ca1c22;fill-opacity:1;fill-rule:evenodd;stroke:#0d6f18;stroke-width:30;stroke-linecap:round;stroke-linejoin:miter;stroke-miterlimit:4;stroke-dasharray:none;stroke-opacity:1"
       d="m 38.555014,107.12444 c 138.104006,49.8136 138.104006,49.8136 138.104006,49.8136"
       id="path4499"
       inkscape:connector-curvature="0" />
    <path
       style="fill:none;fill-rule:evenodd;stroke:#0d6f18;stroke-width:30;stroke-linecap:round;stroke-linejoin:miter;stroke-miterlimit:4;stroke-dasharray:none;stroke-opacity:1"
       d="m 38.555014,107.12444 c 9.902939,-16.412334 26.346675,-28.751672 44.872839,-33.672463 18.526167,-4.920791 38.925587,-2.367476 55.667387,6.967666 13.20105,7.360837 24.07771,18.821816 30.73832,32.389647 6.66061,13.56783 9.07578,29.18266 6.82546,44.12875"
       id="path4539"
       inkscape:connector-curvature="0"
       inkscape:path-effect="#path-effect4541"
       inkscape:original-d="M 38.555014,107.12444 C 72.068686,98.096582 105.58209,89.320977 139.09524,80.419643 c 33.51314,-8.901335 25.04278,51.011997 37.56378,76.518397" />
    <path
       style="fill:none;fill-rule:evenodd;stroke:#0d6f18;stroke-width:30;stroke-linecap:round;stroke-linejoin:miter;stroke-miterlimit:4;stroke-dasharray:none;stroke-opacity:1"
       d="m 38.801946,106.71852 c -9.176187,15.38473 -12.557136,34.13546 -9.332181,51.75624 3.224956,17.62077 13.027816,33.9586 27.058098,45.09608 14.757936,11.7151 34.06568,17.538 52.839937,15.93567 18.77426,-1.60234 36.816,-10.61292 49.37525,-24.65947"
       id="path4558"
       inkscape:connector-curvature="0"
       inkscape:path-effect="#path-effect4560"
       inkscape:original-d="m 38.801946,106.71852 c 6.034628,32.28384 11.817543,64.56794 17.725917,96.85232 5.908376,32.28437 68.143717,-5.81613 102.215187,-8.7238" />
    <path
       style="fill:none;fill-rule:evenodd;stroke:#0d6f18;stroke-width:20;stroke-linecap:butt;stroke-linejoin:miter;stroke-miterlimit:4;stroke-dasharray:none;stroke-opacity:1"
       d="M 116.41667,73.61607 33.639881,173.40178"
       id="path4577"
       inkscape:connector-curvature="0" />
  </g>
  <g
     inkscape:groupmode="layer"
     id="layer3"
     inkscape:label="nodes"
     style="display:inline"
     sodipodi:insensitive="true">
    <circle
       style="display:inline;fill:#0d6f18;fill-opacity:1;stroke:#0d6f18;stroke-width:2;stroke-miterlimit:4;stroke-dasharray:none;stroke-opacity:1"
       id="path6130-7"
       cx="79.01963"
       cy="121.43958"
       r="23.532925" />
    <circle
       style="display:inline;fill:#0d6f18;fill-opacity:1;stroke:#0d6f18;stroke-width:2;stroke-miterlimit:4;stroke-dasharray:none;stroke-opacity:1"
       id="path6130-7-5"
       cx="32.553429"
       cy="104.29869"
       r="23.532925" />
    <circle
       style="display:inline;fill:#0d6f18;fill-opacity:1;stroke:#0d6f18;stroke-width:2;stroke-miterlimit:4;stroke-dasharray:none;stroke-opacity:1"
       id="path6130-7-6"
       cx="117.67877"
       cy="71.932335"
       r="23.532925" />
    <circle
       style="display:inline;fill:#0d6f18;fill-opacity:1;stroke:#0d6f18;stroke-width:2;stroke-miterlimit:4;stroke-dasharray:none;stroke-opacity:1"
       id="path6130-7-2"
       cx="175.11499"
       cy="155.93513"
       r="23.532925" />
    <circle
       style="display:inline;fill:#0d6f18;fill-opacity:1;stroke:#0d6f18;stroke-width:2;stroke-miterlimit:4;stroke-dasharray:none;stroke-opacity:1"
       id="path6130-7-9"
       cx="152.24585"
       cy="201.68394"
       r="23.532925" />
    <circle
       style="display:inline;fill:#0d6f18;fill-opacity:1;stroke:#0d6f18;stroke-width:2;stroke-miterlimit:4;stroke-dasharray:none;stroke-opacity:1"
       id="path6130-7-1"
       cx="32.366371"
       cy="174.8311"
       r="23.532925" />
  </g>
  <g
     inkscape:groupmode="layer"
     id="layer5"
     inkscape:label="hide node borders"
     style="display:inline;opacity:1"
     sodipodi:insensitive="true">
    <rect
       style="opacity:1;fill:#0d6f18;fill-opacity:1;stroke:#0d6f18;stroke-width:0.2;stroke-miterlimit:4;stroke-dasharray:none;stroke-opacity:1"
       id="rect4910"
       width="4.5369015"
       height="0.40925208"
       x="35.635761"
       y="235.08723"
       transform="rotate(-23.853074)" />
    <rect
       style="opacity:1;fill:#0d6f18;fill-opacity:1;stroke:#0d6f18;stroke-width:0.2;stroke-miterlimit:4;stroke-dasharray:none;stroke-opacity:1"
       id="rect4912"
       width="4.9526691"
       height="0.47128907"
       x="27.304586"
       y="263.8812"
       transform="rotate(-26.526356)" />
    <rect
       style="opacity:1;fill:#0d6f18;fill-opacity:1;stroke:#0d6f18;stroke-width:0.2;stroke-miterlimit:4;stroke-dasharray:none;stroke-opacity:1"
       id="rect4914"
       width="16.966406"
       height="22.225004"
       x="127.56224"
       y="200.85703" />
    <rect
       style="opacity:1;fill:#0d6f18;fill-opacity:1;stroke:#0d6f18;stroke-width:0.2;stroke-miterlimit:4;stroke-dasharray:none;stroke-opacity:1"
       id="rect4916"
       width="1.3084401"
       height="0.67385662"
       x="128.6123"
       y="200.2245" />
    <rect
       style="opacity:1;fill:#0d6f18;fill-opacity:1;stroke:#0d6f18;stroke-width:0.2;stroke-miterlimit:4;stroke-dasharray:none;stroke-opacity:1"
       id="rect4918"
       width="3.2652879"
       height="0.62558514"
       x="140.26096"
       y="223.12628" />
    <rect
       style="opacity:1;fill:#0d6f18;fill-opacity:1;stroke:#0d6f18;stroke-width:0.2;stroke-miterlimit:4;stroke-dasharray:none;stroke-opacity:1"
       id="rect4922"
       width="0.79805005"
       height="0.30401909"
       x="141.65244"
       y="223.77524" />
    <rect
       style="opacity:1;fill:#0d6f18;fill-opacity:1;stroke:#0d6f18;stroke-width:0.2;stroke-miterlimit:4;stroke-dasharray:none;stroke-opacity:1"
       id="rect4924"
       width="4.1754556"
       height="0.30592448"
       x="173.44655"
       y="71.116631"
       transform="rotate(51.295279)" />
    <rect
       style="opacity:1;fill:#0d6f18;fill-opacity:1;stroke:#0d6f18;stroke-width:0.2;stroke-miterlimit:4;stroke-dasharray:none;stroke-opacity:1"
       id="rect4926"
       width="0.15785606"
       height="3.1571214"
       x="-97.450203"
       y="173.77296"
       transform="rotate(-38.233543)" />
    <rect
       style="opacity:1;fill:#0d6f18;fill-opacity:1;stroke:#0d6f18;stroke-width:0.2;stroke-miterlimit:4;stroke-dasharray:none;stroke-opacity:1"
       id="rect4928"
       width="21.894274"
       height="16.734911"
       x="33.337502"
       y="182.73308" />
    <rect
       style="opacity:1;fill:#0d6f18;fill-opacity:1;stroke:#0d6f18;stroke-width:0.2;stroke-miterlimit:4;stroke-dasharray:none;stroke-opacity:1"
       id="rect4930"
       width="0.10025228"
       height="0.11265462"
       x="55.268978"
       y="183.3325" />
    <rect
       style="opacity:1;fill:#0d6f18;fill-opacity:1;stroke:#0d6f18;stroke-width:0.2;stroke-miterlimit:4;stroke-dasharray:none;stroke-opacity:1"
       id="rect4932"
       width="1.4862142"
       height="0.41961262"
       x="53.25153"
       y="182.23283" />
    <rect
       style="opacity:1;fill:#0d6f18;fill-opacity:1;stroke:#0d6f18;stroke-width:0.2;stroke-miterlimit:4;stroke-dasharray:none;stroke-opacity:1"
       id="rect4934"
       width="0.90123695"
       height="0.2707845"
       x="53.547119"
       y="181.89796" />
    <rect
       style="opacity:1;fill:#0d6f18;fill-opacity:1;stroke:#0d6f18;stroke-width:0.2;stroke-miterlimit:4;stroke-dasharray:none;stroke-opacity:1"
       id="rect4936"
       width="0.54570311"
       height="0.33279622"
       x="53.683544"
       y="181.58998" />
    <rect
       style="opacity:1;fill:#0d6f18;fill-opacity:1;stroke:#0d6f18;stroke-width:0.2;stroke-miterlimit:4;stroke-dasharray:none;stroke-opacity:1"
       id="rect4938"
       width="1.6253328"
       height="0.37417734"
       x="31.717375"
       y="197.25836" />
    <rect
       style="opacity:1;fill:#0d6f18;fill-opacity:1;stroke:#0d6f18;stroke-width:0.2;stroke-miterlimit:4;stroke-dasharray:none;stroke-opacity:1"
       id="rect4940"
       width="1.145918"
       height="0.29232603"
       x="32.050629"
       y="197.68515" />
    <rect
       style="opacity:1;fill:#0d6f18;fill-opacity:1;stroke:#0d6f18;stroke-width:0.2;stroke-miterlimit:4;stroke-dasharray:none;stroke-opacity:1"
       id="rect4942"
       width="1.0056016"
       height="0.33325171"
       x="32.331261"
       y="198.07686" />
    <rect
       style="opacity:1;fill:#0d6f18;fill-opacity:1;stroke:#0d6f18;stroke-width:0.2;stroke-miterlimit:4;stroke-dasharray:none;stroke-opacity:1"
       id="rect4944"
       width="0.84774554"
       height="0.19293518"
       x="32.629433"
       y="198.53874" />
    <rect
       style="opacity:1;fill:#0d6f18;fill-opacity:1;stroke:#0d6f18;stroke-width:0.2;stroke-miterlimit:4;stroke-dasharray:none;stroke-opacity:1"
       id="rect4946"
       width="0.36248431"
       height="0.2747865"
       x="32.939297"
       y="198.83691" />
    <rect
       style="opacity:1;fill:#0d6f18;fill-opacity:1;stroke:#0d6f18;stroke-width:0.2;stroke-miterlimit:4;stroke-dasharray:none;stroke-opacity:1"
       id="rect4948"
       width="0.11693042"
       height="0.14616302"
       x="33.091309"
       y="199.23448" />
    <rect
       style="opacity:1;fill:#0d6f18;fill-opacity:1;stroke:#0d6f18;stroke-width:0.2;stroke-miterlimit:4;stroke-dasharray:none;stroke-opacity:1"
       id="rect4996"
       width="0.049609374"
       height="4.1671872"
       x="46.065086"
       y="111.54454"
       transform="rotate(13.824566)" />
    <rect
       style="opacity:1;fill:#0d6f18;fill-opacity:1;stroke:#0d6f18;stroke-width:0.2;stroke-miterlimit:4;stroke-dasharray:none;stroke-opacity:1"
       id="rect4998"
       width="0.47941473"
       height="3.2974377"
       x="87.575378"
       y="26.432234"
       transform="rotate(46.191328)" />
    <rect
       style="opacity:1;fill:#0d6f18;fill-opacity:1;stroke:#0d6f18;stroke-width:0.2;stroke-miterlimit:4;stroke-dasharray:none;stroke-opacity:1"
       id="rect5000"
       width="9.9384117"
       height="8.5824213"
       x="41.688412"
       y="81.563019" />
    <rect
       style="opacity:1;fill:#0d6f18;fill-opacity:1;stroke:#0d6f18;stroke-width:0.2;stroke-miterlimit:4;stroke-dasharray:none;stroke-opacity:1"
       id="rect5002"
       width="0.85989583"
       height="1.4882812"
       x="40.944271"
       y="82.241013" />
    <rect
       style="opacity:1;fill:#0d6f18;fill-opacity:1;stroke:#0d6f18;stroke-width:0.2;stroke-miterlimit:4;stroke-dasharray:none;stroke-opacity:1"
       id="rect5004"
       width="0.41341144"
       height="0.52916664"
       x="40.547394"
       y="82.902473" />
    <rect
       style="opacity:1;fill:#0d6f18;fill-opacity:1;stroke:#0d6f18;stroke-width:0.22595532;stroke-miterlimit:4;stroke-dasharray:none;stroke-opacity:1"
       id="rect5006"
       width="11.305971"
       height="36.591721"
       x="50.118446"
       y="88.322868" />
    <rect
       style="opacity:1;fill:#0d6f18;fill-opacity:1;stroke:#0d6f18;stroke-width:0.2;stroke-miterlimit:4;stroke-dasharray:none;stroke-opacity:1"
       id="rect5010"
       width="7.9512682"
       height="7.4835467"
       x="42.235264"
       y="118.04969" />
    <rect
       style="opacity:1;fill:#0d6f18;fill-opacity:1;stroke:#0d6f18;stroke-width:0.23634085;stroke-miterlimit:4;stroke-dasharray:none;stroke-opacity:1"
       id="rect5012"
       width="26.109299"
       height="6.6058774"
       x="18.773809"
       y="123.08992" />
    <rect
       style="opacity:1;fill:#0d6f18;fill-opacity:1;stroke:#0d6f18;stroke-width:0.2;stroke-miterlimit:4;stroke-dasharray:none;stroke-opacity:1"
       id="rect5014"
       width="4.0514321"
       height="4.2746744"
       x="17.718815"
       y="121.19264" />
    <rect
       style="opacity:1;fill:#0d6f18;fill-opacity:1;stroke:#0d6f18;stroke-width:0.2;stroke-miterlimit:4;stroke-dasharray:none;stroke-opacity:1"
       id="rect5016"
       width="0.16536458"
       height="2.058789"
       x="17.569986"
       y="121.73008" />
    <rect
       style="opacity:1;fill:#0d6f18;fill-opacity:1;stroke:#0d6f18;stroke-width:0.2;stroke-miterlimit:4;stroke-dasharray:none;stroke-opacity:1"
       id="rect5018"
       width="0.0082682287"
       height="1.3311849"
       x="17.487305"
       y="122.38326" />
    <rect
       style="opacity:1;fill:#0d6f18;fill-opacity:1;stroke:#0d6f18;stroke-width:0.2;stroke-miterlimit:4;stroke-dasharray:none;stroke-opacity:1"
       id="rect5020"
       width="0.13229166"
       height="0.75240886"
       x="17.321939"
       y="122.79668" />
    <rect
       style="opacity:1;fill:#0d6f18;fill-opacity:1;stroke:#0d6f18;stroke-width:0.2;stroke-miterlimit:4;stroke-dasharray:none;stroke-opacity:1"
       id="rect5022"
       width="0.16536458"
       height="0.21497396"
       x="17.131771"
       y="123.35065" />
    <rect
       style="opacity:1;fill:#0d6f18;fill-opacity:1;stroke:#0d6f18;stroke-width:0.2;stroke-miterlimit:4;stroke-dasharray:none;stroke-opacity:1"
       id="rect5024"
       width="0.6314227"
       height="3.6716087"
       x="145.06436"
       y="62.534546"
       transform="rotate(39.845594)" />
    <rect
       style="opacity:1;fill:#0d6f18;fill-opacity:1;stroke:#0d6f18;stroke-width:0.2;stroke-miterlimit:4;stroke-dasharray:none;stroke-opacity:1"
       id="rect5026"
       width="3.092319"
       height="8.6816473"
       x="56.124737"
       y="124.42553" />
    <rect
       style="opacity:1;fill:#0d6f18;fill-opacity:1;stroke:#0d6f18;stroke-width:0.2;stroke-miterlimit:4;stroke-dasharray:none;stroke-opacity:1"
       id="rect5028"
       width="1.1575524"
       height="6.0027399"
       x="55.89323"
       y="124.45861" />
    <rect
       style="opacity:1;fill:#0d6f18;fill-opacity:1;stroke:#0d6f18;stroke-width:0.2;stroke-miterlimit:4;stroke-dasharray:none;stroke-opacity:1"
       id="rect5030"
       width="1.2402344"
       height="4.2498698"
       x="54.818359"
       y="125.0043" />
    <rect
       style="opacity:1;fill:#0d6f18;fill-opacity:1;stroke:#0d6f18;stroke-width:0.2;stroke-miterlimit:4;stroke-dasharray:none;stroke-opacity:1"
       id="rect5032"
       width="12.005468"
       height="12.286593"
       x="57.464191"
       y="131.66849" />
    <rect
       style="opacity:1;fill:#0d6f18;fill-opacity:1;stroke:#0d6f18;stroke-width:0.2;stroke-miterlimit:4;stroke-dasharray:none;stroke-opacity:1"
       id="rect5034"
       width="0.61680794"
       height="1.0406806"
       x="69.520981"
       y="141.9035" />
    <rect
       style="display:inline;opacity:1;fill:#0d6f18;fill-opacity:1;stroke:#0d6f18;stroke-width:0.2;stroke-miterlimit:4;stroke-dasharray:none;stroke-opacity:1"
       id="rect5045"
       width="4.5475259"
       height="0.24804688"
       x="94.805946"
       y="73.945686"
       transform="rotate(19.739172)" />
    <rect
       style="opacity:1;fill:#0d6f18;fill-opacity:1;stroke:#0d6f18;stroke-width:0.2;stroke-miterlimit:4;stroke-dasharray:none;stroke-opacity:1"
       id="rect5048"
       width="2.9232595"
       height="6.2557807"
       x="61.24815"
       y="101.67943" />
    <rect
       style="opacity:1;fill:#0d6f18;fill-opacity:1;stroke:#0d6f18;stroke-width:0.2;stroke-miterlimit:4;stroke-dasharray:none;stroke-opacity:1"
       id="rect5050"
       width="2.3970735"
       height="2.7712507"
       x="64.042786"
       y="101.92498" />
    <rect
       style="opacity:1;fill:#0d6f18;fill-opacity:1;stroke:#0d6f18;stroke-width:0.2;stroke-miterlimit:4;stroke-dasharray:none;stroke-opacity:1"
       id="rect5054"
       width="0.47955728"
       height="3.5470703"
       x="127.80769"
       y="19.885572"
       transform="rotate(39.97626)" />
    <rect
       style="opacity:1;fill:#0d6f18;fill-opacity:1;stroke:#0d6f18;stroke-width:0.2;stroke-miterlimit:4;stroke-dasharray:none;stroke-opacity:1"
       id="rect5056"
       width="0.63665366"
       height="4.6219401"
       x="145.058"
       y="17.930111"
       transform="rotate(40.268574)" />
    <rect
       style="opacity:1;fill:#0d6f18;fill-opacity:1;stroke:#0d6f18;stroke-width:0.2;stroke-miterlimit:4;stroke-dasharray:none;stroke-opacity:1"
       id="rect5058"
       width="12.898438"
       height="11.228252"
       x="85.443878"
       y="97.652992" />
    <rect
       style="opacity:1;fill:#0d6f18;fill-opacity:1;stroke:#0d6f18;stroke-width:0.2;stroke-miterlimit:4;stroke-dasharray:none;stroke-opacity:1"
       id="rect5062"
       width="0.88056642"
       height="1.8851563"
       x="98.23896"
       y="106.28089" />
    <rect
       style="opacity:1;fill:#0d6f18;fill-opacity:1;stroke:#0d6f18;stroke-width:0.2;stroke-miterlimit:4;stroke-dasharray:none;stroke-opacity:1"
       id="rect5064"
       width="0.94421315"
       height="1.9439682"
       x="84.485153"
       y="98.001961" />
    <rect
       style="opacity:1;fill:#0d6f18;fill-opacity:1;stroke:#0d6f18;stroke-width:0.2;stroke-miterlimit:4;stroke-dasharray:none;stroke-opacity:1"
       id="rect5066"
       width="0.48818448"
       height="0.45895189"
       x="84.116821"
       y="99.136185" />
    <rect
       style="opacity:1;fill:#0d6f18;fill-opacity:1;stroke:#0d6f18;stroke-width:0.2;stroke-miterlimit:4;stroke-dasharray:none;stroke-opacity:1"
       id="rect5068"
       width="0.33909819"
       height="3.5663779"
       x="145.11816"
       y="1.1739562"
       transform="rotate(39.077575)" />
    <rect
       style="opacity:1;fill:#0d6f18;fill-opacity:1;stroke:#0d6f18;stroke-width:0.2;stroke-miterlimit:4;stroke-dasharray:none;stroke-opacity:1"
       id="rect5070"
       width="3.5181315"
       height="0.18603516"
       x="97.933632"
       y="57.66151"
       transform="rotate(-0.26922167)" />
    <rect
       style="opacity:1;fill:#0d6f18;fill-opacity:1;stroke:#0d6f18;stroke-width:0.2;stroke-miterlimit:4;stroke-dasharray:none;stroke-opacity:1"
       id="rect5074"
       width="12.187352"
       height="37.775463"
       x="97.823982"
       y="57.269257" />
    <rect
       style="opacity:1;fill:#0d6f18;fill-opacity:1;stroke:#0d6f18;stroke-width:0.2;stroke-miterlimit:4;stroke-dasharray:none;stroke-opacity:1"
       id="rect5076"
       width="0.6343475"
       height="1.3680859"
       x="110.08706"
       y="93.193207" />
    <rect
       style="opacity:1;fill:#0d6f18;fill-opacity:1;stroke:#0d6f18;stroke-width:0.2;stroke-miterlimit:4;stroke-dasharray:none;stroke-opacity:1"
       id="rect5078"
       width="0.13739325"
       height="0.45895189"
       x="110.70095"
       y="93.307205" />
    <rect
       style="opacity:1;fill:#0d6f18;fill-opacity:1;stroke:#0d6f18;stroke-width:0.2;stroke-miterlimit:4;stroke-dasharray:none;stroke-opacity:1"
       id="rect5080"
       width="6.7585878"
       height="29.583393"
       x="92.819359"
       y="56.941849" />
    <rect
       style="opacity:1;fill:#0d6f18;fill-opacity:1;stroke:#0d6f18;stroke-width:0.2;stroke-miterlimit:4;stroke-dasharray:none;stroke-opacity:1"
       id="rect5082"
       width="0.2747865"
       height="3.4026749"
       x="-8.5002203"
       y="157.72549"
       transform="rotate(-8.6045529)" />
    <rect
       style="opacity:1;fill:#0d6f18;fill-opacity:1;stroke:#0d6f18;stroke-width:0.2;stroke-miterlimit:4;stroke-dasharray:none;stroke-opacity:1"
       id="rect5084"
       width="3.1005859"
       height="0.090950519"
       x="-87.733864"
       y="149.27814"
       transform="rotate(-47.802611)" />
    <rect
       style="opacity:1;fill:#0d6f18;fill-opacity:1;stroke:#0d6f18;stroke-width:0.2;stroke-miterlimit:4;stroke-dasharray:none;stroke-opacity:1"
       id="rect5086"
       width="36.653061"
       height="14.20069"
       x="15.841927"
       y="150.15627" />
    <rect
       style="opacity:1;fill:#0d6f18;fill-opacity:1;stroke:#0d6f18;stroke-width:0.2;stroke-miterlimit:4;stroke-dasharray:none;stroke-opacity:1"
       id="rect5088"
       width="0.18190104"
       height="3.2618163"
       x="52.474316"
       y="160.90494" />
    <rect
       style="opacity:1;fill:#0d6f18;fill-opacity:1;stroke:#0d6f18;stroke-width:0.2;stroke-miterlimit:4;stroke-dasharray:none;stroke-opacity:1"
       id="rect5090"
       width="0.1984375"
       height="2.778125"
       x="52.714096"
       y="161.13644" />
    <rect
       style="opacity:1;fill:#0d6f18;fill-opacity:1;stroke:#0d6f18;stroke-width:0.2;stroke-miterlimit:4;stroke-dasharray:none;stroke-opacity:1"
       id="rect5092"
       width="0.19016927"
       height="2.1456053"
       x="52.978676"
       y="161.48785" />
    <rect
       style="opacity:1;fill:#0d6f18;fill-opacity:1;stroke:#0d6f18;stroke-width:0.2;stroke-miterlimit:4;stroke-dasharray:none;stroke-opacity:1"
       id="rect5094"
       width="0.11575521"
       height="1.7859374"
       x="53.25153"
       y="161.61188" />
    <rect
       style="opacity:1;fill:#0d6f18;fill-opacity:1;stroke:#0d6f18;stroke-width:0.2;stroke-miterlimit:4;stroke-dasharray:none;stroke-opacity:1"
       id="rect5096"
       width="0.12402344"
       height="1.1492839"
       x="53.38382"
       y="162.0997" />
    <rect
       style="opacity:1;fill:#0d6f18;fill-opacity:1;stroke:#0d6f18;stroke-width:0.2;stroke-miterlimit:4;stroke-dasharray:none;stroke-opacity:1"
       id="rect5098"
       width="0.06614583"
       height="0.63665366"
       x="53.499577"
       y="162.43456" />
    <rect
       style="opacity:1;fill:#0d6f18;fill-opacity:1;stroke:#0d6f18;stroke-width:0.2;stroke-miterlimit:4;stroke-dasharray:none;stroke-opacity:1"
       id="rect5100"
       width="0.14882812"
       height="0.46715495"
       x="53.561588"
       y="162.6082" />
    <rect
       style="opacity:1;fill:#0d6f18;fill-opacity:1;stroke:#0d6f18;stroke-width:0.2;stroke-miterlimit:4;stroke-dasharray:none;stroke-opacity:1"
       id="rect5102"
       width="0.38002387"
       height="1.5288651"
       x="15.481587"
       y="156.80919" />
    <rect
       style="opacity:1;fill:#0d6f18;fill-opacity:1;stroke:#0d6f18;stroke-width:0.2;stroke-miterlimit:4;stroke-dasharray:none;stroke-opacity:1"
       id="rect5110"
       width="4.2643414"
       height="0.0061940509"
       x="131.05032"
       y="101.88306"
       transform="rotate(19.706617)" />
    <rect
       style="opacity:1;fill:#0d6f18;fill-opacity:1;stroke:#0d6f18;stroke-width:0.2;stroke-miterlimit:4;stroke-dasharray:none;stroke-opacity:1"
       id="rect5112"
       width="3.1717377"
       height="0.023386084"
       x="131.82088"
       y="75.364136"
       transform="rotate(19.156234)" />
    <rect
       style="opacity:1;fill:#0d6f18;fill-opacity:1;stroke:#0d6f18;stroke-width:0.16811249;stroke-miterlimit:4;stroke-dasharray:none;stroke-opacity:1"
       id="rect5116"
       width="7.5807395"
       height="27.975082"
       x="94.002327"
       y="115.06361" />
    <rect
       style="opacity:1;fill:#0d6f18;fill-opacity:1;stroke:#0d6f18;stroke-width:0.2;stroke-miterlimit:4;stroke-dasharray:none;stroke-opacity:1"
       id="rect5118"
       width="1.5580978"
       height="0.52034032"
       x="100.26783"
       y="114.84579" />
    <rect
       style="opacity:1;fill:#0d6f18;fill-opacity:1;stroke:#0d6f18;stroke-width:0.38637933;stroke-miterlimit:4;stroke-dasharray:none;stroke-opacity:1"
       id="rect5120"
       width="5.7887654"
       height="6.8352923"
       x="90.872139"
       y="134.63591" />
    <rect
       style="opacity:1;fill:#0d6f18;fill-opacity:1;stroke:#0d6f18;stroke-width:0.19801587;stroke-miterlimit:4;stroke-dasharray:none;stroke-opacity:1"
       id="rect5122"
       width="5.2936506"
       height="17.629848"
       x="98.523224"
       y="114.76723" />
    <rect
       style="opacity:1;fill:#0d6f18;fill-opacity:1;stroke:#0d6f18;stroke-width:2;stroke-miterlimit:4;stroke-dasharray:none;stroke-opacity:1"
       id="rect5129"
       width="13.77487"
       height="0.049609374"
       x="191.36391"
       y="76.327042"
       transform="rotate(19.154772)" />
    <rect
       style="opacity:1;fill:#0d6f18;fill-opacity:1;stroke:#0d6f18;stroke-width:2;stroke-miterlimit:4;stroke-dasharray:none;stroke-opacity:1"
       id="rect5131"
       width="0.77174073"
       height="4.952003"
       x="161.96571"
       y="133.82695" />
    <rect
       style="opacity:1;fill:#0d6f18;fill-opacity:1;stroke:#0d6f18;stroke-width:0.2;stroke-miterlimit:4;stroke-dasharray:none;stroke-opacity:1"
       id="rect5149"
       width="4.8121095"
       height="0.47956339"
       x="196.97836"
       y="101.79694"
       transform="rotate(19.634709)" />
    <rect
       style="opacity:1;fill:#0d6f18;fill-opacity:1;stroke:#0d6f18;stroke-width:0.2;stroke-miterlimit:4;stroke-dasharray:none;stroke-opacity:1"
       id="rect5151"
       width="7.890728"
       height="27.135843"
       x="150.28333"
       y="136.13335" />
    <rect
       style="opacity:1;fill:#0d6f18;fill-opacity:1;stroke:#0d6f18;stroke-width:0.2;stroke-miterlimit:4;stroke-dasharray:none;stroke-opacity:1"
       id="rect5153"
       width="6.6416478"
       height="5.1449385"
       x="155.56422"
       y="136.75856" />
    <rect
       style="opacity:1;fill:#0d6f18;fill-opacity:1;stroke:#0d6f18;stroke-width:0.2;stroke-miterlimit:4;stroke-dasharray:none;stroke-opacity:1"
       id="rect5237"
       width="0.22801431"
       height="3.4319079"
       x="176.67682"
       y="154.825"
       transform="rotate(-5.5063259)" />
    <rect
       style="opacity:1;fill:#0d6f18;fill-opacity:1;stroke:#0d6f18;stroke-width:0.2;stroke-miterlimit:4;stroke-dasharray:none;stroke-opacity:1"
       id="rect5239"
       width="26.589981"
       height="8.9100981"
       x="163.14131"
       y="130.28061" />
    <rect
       style="opacity:1;fill:#0d6f18;fill-opacity:1;stroke:#0d6f18;stroke-width:0.2;stroke-miterlimit:4;stroke-dasharray:none;stroke-opacity:1"
       id="rect5241"
       width="1.480013"
       height="4.0100913"
       x="189.04478"
       y="135.94316" />
    <rect
       style="opacity:1;fill:#0d6f18;fill-opacity:1;stroke:#0d6f18;stroke-width:0.2;stroke-miterlimit:4;stroke-dasharray:none;stroke-opacity:1"
       id="rect5243"
       width="0.66972655"
       height="3.5388021"
       x="190.161"
       y="136.53847" />
    <rect
       style="opacity:1;fill:#0d6f18;fill-opacity:1;stroke:#0d6f18;stroke-width:0.2;stroke-miterlimit:4;stroke-dasharray:none;stroke-opacity:1"
       id="rect5246"
       width="3.4726562"
       height="0.10748698"
       x="152.53465"
       y="6.0158911"
       transform="rotate(22.798309)"
       inkscape:transform-center-x="0.12054445"
       inkscape:transform-center-y="-0.084995095" />
    <rect
       style="opacity:1;fill:#0d6f18;fill-opacity:1;stroke:#0d6f18;stroke-width:0.2;stroke-miterlimit:4;stroke-dasharray:none;stroke-opacity:1"
       id="rect5248"
       width="5.9751444"
       height="0.60219169"
       x="153.76515"
       y="17.789209"
       transform="rotate(28.431215)" />
    <rect
       style="opacity:1;fill:#0d6f18;fill-opacity:1;stroke:#0d6f18;stroke-width:0.2;stroke-miterlimit:4;stroke-dasharray:none;stroke-opacity:1"
       id="rect5250"
       width="6.6127057"
       height="26.145161"
       x="136.46335"
       y="66.03952" />
    <rect
       style="opacity:1;fill:#0d6f18;fill-opacity:1;stroke:#0d6f18;stroke-width:0.2;stroke-miterlimit:4;stroke-dasharray:none;stroke-opacity:1"
       id="rect5254"
       width="1.7197876"
       height="0.32659709"
       x="139.18736"
       y="65.791374" />
    <rect
       style="opacity:1;fill:#0d6f18;fill-opacity:1;stroke:#0d6f18;stroke-width:0.2;stroke-miterlimit:4;stroke-dasharray:none;stroke-opacity:1"
       id="rect5256"
       width="0.94671226"
       height="0.23151042"
       x="139.19977"
       y="65.506119" />
    <rect
       style="opacity:1;fill:#0d6f18;fill-opacity:1;stroke:#0d6f18;stroke-width:0.2;stroke-miterlimit:4;stroke-dasharray:none;stroke-opacity:1"
       id="rect5258"
       width="0.50435793"
       height="0.23978119"
       x="139.07988"
       y="65.249802" />
    <rect
       style="opacity:1;fill:#0d6f18;fill-opacity:1;stroke:#0d6f18;stroke-width:0.2;stroke-miterlimit:4;stroke-dasharray:none;stroke-opacity:1"
       id="rect5260"
       width="5.6554556"
       height="7.6977262"
       x="131.44003"
       y="84.399025" />
    <rect
       style="opacity:1;fill:#0d6f18;fill-opacity:1;stroke:#0d6f18;stroke-width:0.2;stroke-miterlimit:4;stroke-dasharray:none;stroke-opacity:1"
       id="rect5262"
       width="1.4965495"
       height="1.6371094"
       x="130.0675"
       y="89.533592" />
  </g>
  <g
     inkscape:groupmode="layer"
     id="layer4"
     inkscape:label="e border"
     style="display:inline">
    <path
       style="fill:none;fill-rule:evenodd;stroke:#0d6f18;stroke-width:2;stroke-linecap:butt;stroke-linejoin:miter;stroke-miterlimit:4;stroke-dasharray:none;stroke-opacity:1"
       d="m 111.79473,94.821125 -1.11208,1.368391 -0.33797,0.409278 -0.53743,0.646989 -0.32659,0.393774 -0.69764,0.841293 -0.7369,0.888833 -0.63872,0.769977 -0.51677,0.62219 -0.51366,0.62011 -0.57774,0.69557 -0.53744,0.64802 -0.89297,1.07694 -0.72657,0.8754 -0.72347,0.8723 -0.6904,0.83302 -0.76584,0.92294 -0.63045,0.75861 -0.38241,0.46199 -0.899509,1.07325"
       id="path4900"
       inkscape:connector-curvature="0" />
    <path
       style="fill:none;fill-rule:evenodd;stroke:#0d6f18;stroke-width:2;stroke-linecap:butt;stroke-linejoin:miter;stroke-miterlimit:4;stroke-dasharray:none;stroke-opacity:1"
       d="m 100.24814,56.043131 -1.397326,0.02479 -1.194761,0.05374 -1.050065,0.06201 -1.157552,0.08268 -1.258837,0.105418 -1.128615,0.111622 -0.833022,0.09095 -0.440285,0.04961 -0.502293,0.06408 -0.566375,0.07028 -0.43408,0.05994 -0.429948,0.05995 -0.549839,0.07648 -0.38654,0.05994 -0.5333,0.08268 -0.367937,0.05788 -0.279051,0.04548 -0.293523,0.04961 -0.483691,0.08268 -0.892968,0.159163 -0.611849,0.117822 -0.467156,0.09095 -0.593247,0.119891 -0.735872,0.155027 -0.990118,0.217043 -0.657326,0.152961 -0.535368,0.128159 -0.626317,0.152961 -0.847495,0.214974 -0.541567,0.142626 -0.690399,0.188103 -0.833024,0.235646 -0.864029,0.252179 -0.851628,0.258382 -0.709001,0.221176 -0.622184,0.200504 -0.787548,0.262517 -0.444418,0.150894 -0.673862,0.23358 -0.421679,0.15296 -1.258838,0.460955 -0.698664,0.264583 -0.570507,0.219107 -0.574644,0.229444 -0.686263,0.279053 -0.655256,0.270786 -0.589111,0.252179 -0.651124,0.279054 -0.835091,0.37207 -0.502295,0.225308 -0.332796,0.15503 -0.504362,0.233577 -0.901237,0.432015 -0.345199,0.165364 -0.49816,0.245981 -0.483693,0.239778 -0.425812,0.21911 -0.979787,0.504362 -0.556037,0.297656 -0.423747,0.227375 -0.334864,0.179834 -0.434081,0.239779 -0.380338,0.212908 -0.417547,0.237709 -0.438216,0.252183 -0.880566,0.510563 -0.5271,0.312124 -0.316259,0.192238 -0.427881,0.260448 -0.446485,0.274918 -0.487825,0.303858 -0.911572,0.578776 -0.659392,0.432015 -0.415478,0.27492 -0.442351,0.293521 -0.636654,0.432014 -0.510561,0.351401 -0.71727,0.502296 -0.54157,0.388607 -0.305924,0.221173 -0.48369,0.355534 -0.394809,0.291457 -0.42168,0.318325 -0.444418,0.336931 -0.382405,0.293521 -0.353467,0.272852 -0.42168,0.330729 -0.314192,0.250116 -0.398942,0.322461 -0.489892,0.396875 -0.419613,0.345196 -0.334862,0.276987 -0.334865,0.283186 -0.562239,0.477491 -0.48369,0.415478 -0.516766,0.456819 -0.392739,0.349335 -0.502296,0.448551 -0.415478,0.384471 -0.731739,0.673862 -0.264584,0.250113 -0.326594,0.31006 -0.944647,0.90537"
       id="path4902"
       inkscape:connector-curvature="0" />
    <path
       style="fill:none;fill-rule:evenodd;stroke:#0d6f18;stroke-width:2;stroke-linecap:butt;stroke-linejoin:miter;stroke-miterlimit:4;stroke-dasharray:none;stroke-opacity:1"
       d="m 53.683545,164.84682 0.775147,-0.87436 0.593243,-0.71934 0.994257,-1.20096 1.023191,-1.23403 1.021128,-1.2299 1.269172,-1.52962 1.033528,-1.24644 1.624709,-1.95957 1.248502,-1.50482 1.213364,-1.45934 1.754931,-2.11873 1.558559,-1.87689 1.44901,-1.74873 1.29191,-1.55649 0.806151,-0.96739"
       id="path4904"
       inkscape:connector-curvature="0" />
    <path
       style="fill:none;fill-rule:evenodd;stroke:#0d6f18;stroke-width:2;stroke-linecap:butt;stroke-linejoin:miter;stroke-miterlimit:4;stroke-dasharray:none;stroke-opacity:1"
       d="m 55.087077,180.63501 0.892969,1.18855 0.34313,0.44029 0.316259,0.39274 0.477491,0.58498 0.469223,0.56017 0.568441,0.66352 0.463021,0.5209 0.514697,0.57051 0.403077,0.43615 0.270782,0.28525 0.45062,0.47336 0.570508,0.57671 0.403077,0.40101 0.446484,0.43615 0.527098,0.50229 0.425815,0.39688 0.394808,0.36173 0.396875,0.35554 0.374137,0.32452 0.434081,0.38034 0.343133,0.29146 0.529166,0.43821 0.229444,0.18604 0.394806,0.32246 0.386541,0.30386 0.609782,0.47129 0.529167,0.401 0.539501,0.39481 0.417547,0.29973 0.427879,0.29972 0.338997,0.23771 0.535369,0.36587 0.60358,0.39687 0.394809,0.25839 0.388607,0.24805 0.411345,0.25838 0.473355,0.28938 0.448551,0.27079 0.537435,0.31626 0.43615,0.25218 0.58911,0.3328 0.566375,0.31005 0.481624,0.25425 0.440283,0.23151 0.514696,0.26459 0.644922,0.32039 0.690399,0.33486 0.599445,0.27906 0.709001,0.32452 0.355534,0.15607 0.49816,0.21704 0.617019,0.26148 0.63872,0.26148 0.534334,0.21188 0.565341,0.21911 0.663524,0.24804 0.504362,0.18294 0.430983,0.15192 0.406175,0.14056 0.216008,0.0724 0.256315,0.0868 0.263549,0.0868 0.221176,0.0723 0.301792,0.0971 0.30489,0.0951 0.290422,0.0899 0.305925,0.093 0.441314,0.13126 0.299725,0.0868 0.45992,0.12919 0.391708,0.10852 0.239778,0.0651 0.280086,0.0744 0.398941,0.10336 0.42168,0.10645 0.492993,0.11886 0.632521,0.14779 0.305924,0.0682 0.384471,0.0847 0.571543,0.11989 0.449585,0.0909 0.500226,0.0971 0.472324,0.0858 0.478523,0.0848 0.649057,0.10955 0.497128,0.0786 0.489892,0.0724 0.464053,0.0651 0.519867,0.0692 0.404108,0.0506 0.366903,0.0434 0.386541,0.0434 0.613915,0.0641 0.803053,0.0724 0.809252,0.0631 0.560173,0.0372 0.475418,0.0289 0.41238,0.0196 0.23978,0.0114 0.39894,0.0155 0.67903,0.0196 0.46199,0.008 0.41238,0.005 0.68006,0.003 0.71107,-0.006 0.3545,-0.007 0.30282,-0.006 0.40618,-0.0134 0.28835,-0.009 0.21498,-0.009 0.32142,-0.0145 0.25632,-0.0124 0.28835,-0.0155 0.28319,-0.0165 0.26252,-0.0165 0.32659,-0.0248 0.27182,-0.0196 0.25218,-0.0196 0.24805,-0.0217 0.14262,-0.0114 0.25632,-0.0238 0.30386,-0.03 0.28008,-0.0279 0.21084,-0.0217 0.26045,-0.0289 0.37724,-0.0434 0.36173,-0.0444 0.26666,-0.0341 0.23874,-0.0331 0.29869,-0.0403 0.24598,-0.0351 0.23668,-0.0341 0.32039,-0.0486 0.19741,-0.031 0.2253,-0.0351 0.27699,-0.0455 0.27285,-0.0475 0.28112,-0.0475 0.39274,-0.0713 0.30386,-0.0558 0.15916,-0.03 0.30386,-0.0599 0.30696,-0.061 0.32453,-0.0672 0.27078,-0.0568 0.25218,-0.0558 0.32556,-0.0724 0.23771,-0.0527 0.30903,-0.0724 0.34727,-0.0827 0.32659,-0.0786 0.43925,-0.11059 0.38241,-0.0982 0.42788,-0.11472 0.47129,-0.12816 0.16743,-0.0475 0.3452,-0.0982 0.32556,-0.0951 0.1974,-0.0589 0.24495,-0.0734 0.25735,-0.0786 0.23461,-0.0713 0.31419,-0.0992 0.3421,-0.11059 0.32246,-0.10542 0.35347,-0.11679 0.3545,-0.12196 0.18913,-0.0641 0.3235,-0.11368 0.30799,-0.11059 0.30592,-0.11162 0.19741,-0.0734 0.31626,-0.11783 0.32452,-0.12195 0.13023,-0.0506 0.22944,-0.0899 0.33486,-0.13126 0.25115,-0.10025 0.26459,-0.10646 0.25735,-0.10542 0.27491,-0.11368 0.31523,-0.13229 0.29869,-0.12816 0.41444,-0.1819 0.0951,-0.0424 1.41077,-0.61392"
       id="path4906"
       inkscape:connector-curvature="0" />
    <path
       style="fill:none;fill-rule:evenodd;stroke:#0d6f18;stroke-width:2;stroke-linecap:butt;stroke-linejoin:miter;stroke-miterlimit:4;stroke-dasharray:none;stroke-opacity:1"
       d="m 30.60946,197.98624 1.069914,1.44994 0.224621,0.29327 0.198438,0.25838 0.323495,0.41651 0.243911,0.31006 0.206706,0.26252 0.221176,0.27698 0.133326,0.16434 0.203605,0.25217 0.172598,0.21291 0.171567,0.20981 0.158131,0.1912 0.16743,0.20257 0.225309,0.26975 0.194305,0.23255 0.175699,0.20774 0.144693,0.17053 0.200506,0.23564 0.315225,0.36484 0.240813,0.27595 0.417544,0.47336 0.241848,0.27078 0.230476,0.25735 0.212907,0.23668 0.193271,0.21187 0.16433,0.1788 0.257349,0.28112 0.152961,0.1633 0.173633,0.185 0.186036,0.19844 0.198438,0.21084 0.129191,0.13539 0.183967,0.19224 0.220141,0.23047 0.265618,0.27389 0.201539,0.20567 0.198437,0.20361 0.220141,0.22221 0.343131,0.34416 0.291454,0.28939 0.221176,0.21601 0.20774,0.2036 0.287322,0.27905 0.247012,0.23668 0.305924,0.29249 0.259416,0.24598 0.300758,0.28215 0.298688,0.27699 0.262517,0.24184 0.30489,0.27596 0.497128,0.44958 0.213939,0.19121 0.304893,0.26871 0.251148,0.22118 0.382405,0.33176 0.25528,0.22014 0.422714,0.35967 0.241845,0.2036 0.313161,0.26149 0.259414,0.216 0.200506,0.16434 0.353465,0.28732 0.639755,0.51366 0.563274,0.44545 0.604615,0.47026 0.632518,0.48059 0.425815,0.31729 0.283186,0.21084 0.272852,0.20051 0.282152,0.20464 0.328662,0.23771 0.237713,0.1726 0.296621,0.2098 0.28112,0.19741 0.315227,0.22014 0.297657,0.2067 0.220141,0.15193 0.234611,0.1602 0.258382,0.17363 0.164332,0.11059 0.203605,0.13642 0.19947,0.13436 0.148828,0.0971 0.185002,0.12196 0.189137,0.12506 0.248047,0.1602 0.196368,0.12712 0.272852,0.17673 0.181901,0.11473 0.299725,0.19016 0.310058,0.19534 0.362767,0.22428 0.181901,0.11265 0.247015,0.1509 0.254249,0.15503 0.297656,0.17983 0.286287,0.17157 0.253214,0.15089 0.254249,0.14883 0.267682,0.15709 0.275952,0.15917 0.270785,0.15606 0.31006,0.17674 0.384472,0.216 0.301791,0.1695 0.316259,0.1757 0.385506,0.20877 0.394809,0.21394 0.337963,0.18087 0.51263,0.27079 0.344165,0.18086 0.489892,0.25219 0.32246,0.16226 0.305925,0.15399 0.371038,0.18501 0.375172,0.18603 0.423746,0.20567 0.42478,0.20361 0.380339,0.17983 0.529166,0.24805 0.380339,0.17466 0.429948,0.19431 0.412377,0.18603 0.366903,0.16227 0.3483,0.15193 0.350367,0.15193 0.362767,0.15606 0.314193,0.13229 0.432014,0.17983 0.490927,0.20154 0.475424,0.19224 0.488857,0.19534 0.45992,0.1788 0.293524,0.11368 0.370004,0.14056 0.363802,0.13643 0.351398,0.13023 0.334865,0.12505 0.280085,0.10129 0.351398,0.12609 0.236681,0.0837 0.306956,0.10852 0.265618,0.092 0.331761,0.11472 0.27182,0.0909 0.23151,0.0796 0.318326,0.10542 0.367937,0.12299 0.408244,0.13229 0.48369,0.15297 0.469223,0.14676 0.471289,0.14573 0.38654,0.11678 0.37827,0.11059 0.390676,0.11576 0.391707,0.11162 0.36897,0.10335 0.44545,0.12506 0.427881,0.11575 0.402043,0.10749 0.557072,0.14573 0.500226,0.12712 0.651291,0.16067 0.838975,0.2017 0.727689,0.16783 0.606681,0.13436 0.617017,0.13229 0.446484,0.093 0.670758,0.13539 0.47439,0.093 1.145151,0.21291 0.728637,0.12712 0.590145,0.0982 0.374136,0.062 0.521933,0.0816 0.502296,0.0754 0.422711,0.062 0.366903,0.0517 0.375172,0.0506 0.360701,0.0486 0.490926,0.0641 0.521933,0.0641 0.36897,0.0434 0.419613,0.0465 0.355534,0.0382 0.375171,0.0403 0.478523,0.0465 0.538469,0.0506 0.486791,0.0424 0.480592,0.0403 0.505394,0.0393 0.555006,0.0393 0.63872,0.0424 0.469222,0.0258 0.388607,0.0207 0.689364,0.0331 0.51263,0.0207 0.458886,0.0155 0.3824,0.0103 0.34004,0.0103 0.32762,0.008 0.39791,0.007 0.41031,0.005 0.39688,0.003 0.45165,0.002 0.75861,-0.001 0.44132,-0.004 0.49919,-0.007 0.66766,-0.0155 0.78445,-0.0217 0.53744,-0.0207 0.50436,-0.0217 0.555,-0.0259 0.52607,-0.03 0.64595,-0.0393 0.50747,-0.0362 0.42788,-0.031 0.73654,-0.0604 0.57589,-0.0497 0.62119,-0.0614 0.38872,-0.0383 0.5364,-0.0568 0.39687,-0.0444 0.34417,-0.0403 0.40307,-0.0496 0.43099,-0.0537 0.50746,-0.0662 0.50022,-0.0692 0.54468,-0.0775 0.43201,-0.0651 0.54364,-0.0837 0.47025,-0.0775 0.3638,-0.0579 0.53124,-0.092 0.23151,-0.0403 0.32556,-0.0579 0.3762,-0.0703 0.26252,-0.0486 0.3514,-0.0693 0.34933,-0.0672 0.22014,-0.0424 0.33487,-0.0693 0.30592,-0.061 0.49093,-0.10335 0.41961,-0.0899 0.44752,-0.0992 0.49506,-0.11162 0.58808,-0.13746 0.48265,-0.11575 0.4775,-0.11679 0.62941,-0.1602 0.56431,-0.14469 0.62012,-0.1664 0.45682,-0.12506 0.29972,-0.0827 0.61392,-0.17363 0.60771,-0.17777 0.54157,-0.16123 0.8909,-0.27492 0.77411,-0.24598 0.64493,-0.21084 0.88676,-0.29972 0.55811,-0.19224 0.72554,-0.25941 0.77514,-0.28216 0.88677,-0.33383 0.555,-0.2129 0.30283,-0.11989 0.57258,-0.22738 0.30592,-0.12299 0.339,-0.13746 0.33383,-0.13849 0.2098,-0.0879 0.41031,-0.17157 0.57568,-0.24804 0.38964,-0.16744 0.21704,-0.0961 0.33486,-0.1478 0.3359,-0.15089 0.47542,-0.21498 0.27079,-0.12402 0.61081,-0.28422 0.38654,-0.18087 0.30489,-0.14676 0.39791,-0.19224 0.36277,-0.17776 0.31729,-0.15607 0.44442,-0.22324 0.3607,-0.18087 0.20671,-0.10645 1.67018,-0.85163"
       id="path4908"
       inkscape:connector-curvature="0" />
    <path
       style="display:inline;opacity:1;fill:none;fill-rule:evenodd;stroke:#0d6f18;stroke-width:2;stroke-linecap:butt;stroke-linejoin:miter;stroke-miterlimit:4;stroke-dasharray:none;stroke-opacity:1"
       d="m 14.385365,159.29689 -0.16955,-1.14007 -0.05554,-0.39172 -0.03216,-0.23094 -0.038,-0.26601 -0.04677,-0.35956 -0.04093,-0.29818 -0.02631,-0.23093 -0.04385,-0.34787 -0.04969,-0.43264 -0.05262,-0.44142 -0.03508,-0.33033 -0.06431,-0.60219 -0.05846,-0.59342 -0.06431,-0.73081 -0.03508,-0.39464 -0.03508,-0.42972 -0.02923,-0.4268 -0.03508,-0.49988 -0.02631,-0.42972 -0.02923,-0.47357 -0.02631,-0.49403 -0.02339,-0.53203 -0.02339,-0.48818 -0.01169,-0.40341 -0.01462,-0.4151 -0.01169,-0.41803 -0.01169,-0.45018 -0.0058,-0.47649 -0.0058,-0.45311 v -0.42387 l -0.0058,-0.49403 v -0.39757 l 0.0058,-0.45603 0.0058,-0.42387 0.0088,-0.56711 0.01169,-0.53788 0.01462,-0.4268 0.01347,-0.47593 0.01964,-0.43925 0.0083,-0.22737 0.0186,-0.39998 0.02377,-0.48162 0.01964,-0.3173 0.02274,-0.38137 0.0186,-0.31626 0.0186,-0.28318 0.0186,-0.24702 0.02274,-0.32453 0.01757,-0.23047 0.0155,-0.19431 0.01757,-0.22427 0.01447,-0.17777 0.01343,-0.16226 0.01447,-0.15917 0.0217,-0.23874 0.01757,-0.20257 0.0217,-0.23151 0.01447,-0.14573 0.02481,-0.26562 0.0186,-0.1788 0.02377,-0.22841 0.0217,-0.21601 0.0248,-0.2191 0.03411,-0.30903 0.02791,-0.25218 0.03824,-0.32453 0.03824,-0.31729 0.04237,-0.34623 0.03927,-0.30593 0.03101,-0.23151 0.04134,-0.30489 0.03204,-0.23254 0.03514,-0.25012 0.03514,-0.26045 0.110588,-0.72657 0.06821,-0.45061 0.08061,-0.5085 0.06615,-0.38654 0.08682,-0.53537 0.08268,-0.44028 0.07855,-0.45269 0.05995,-0.31419 0.09715,-0.5147 0.08888,-0.45888 0.07855,-0.38241 0.08061,-0.40308 0.142627,-0.65525 0.144694,-0.66353 0.117822,-0.5271 0.169499,-0.7152 0.09715,-0.40928 0.183968,-0.74827 0.09095,-0.35347 0.370003,-1.45314"
       id="path4985"
       inkscape:connector-curvature="0" />
    <path
       style="fill:none;fill-rule:evenodd;stroke:#0d6f18;stroke-width:2;stroke-linecap:butt;stroke-linejoin:miter;stroke-miterlimit:4;stroke-dasharray:none;stroke-opacity:1"
       d="m 55.612106,129.22239 -0.594275,-0.21421 -0.557073,-0.20153 -0.590145,-0.21291 -0.651123,-0.23461 -0.853694,-0.30799 -0.898136,-0.3235 -0.840259,-0.30282 -0.405143,-0.14676 -0.464056,-0.16743 -0.427881,-0.15503 -0.297656,-0.10749 -0.424781,-0.15296 -0.440282,-0.15813 -0.534334,-0.19224 -0.245981,-0.0889 -0.978926,-0.35365 -0.162291,0.5428 -0.07234,0.22015 -0.09095,0.29145 -0.08578,0.27285 -0.05478,0.1788 -0.05685,0.18707 -0.08888,0.29456 -0.08061,0.27698 -0.07958,0.27596 -0.100254,0.35449 -0.08785,0.31626 -0.05064,0.18604 -0.04651,0.17777 -0.04857,0.1788 -0.08165,0.31316 -0.05684,0.22324 -0.117822,0.47439 -0.08268,0.34003 -0.07028,0.29559 -0.07751,0.33073 -0.07441,0.33176 -0.09715,0.44338 -0.09715,0.45889 -0.08992,0.44855 -0.08268,0.41341 -0.08371,0.44959 -0.06098,0.33796 -0.08372,0.47542 -0.05374,0.31936 -0.05788,0.35761 -0.04961,0.31936 -0.06718,0.44751 -0.05478,0.38654 -0.05478,0.39895 -0.04857,0.37517 -0.04961,0.40307 -0.03411,0.29663 -0.03411,0.29042 -0.0341,0.32866 -0.02791,0.27595 -0.03721,0.37517 -0.02273,0.24185 -0.0217,0.25528 -0.01963,0.22944 -0.01654,0.21498 -0.02894,0.37827 -0.01447,0.20567 -0.0186,0.28112 -0.0217,0.36794 -0.0217,0.3855 -0.0155,0.31833 -0.0155,0.32453 -0.0072,0.21911 -0.0093,0.25218 -0.0052,0.17983 -0.0083,0.27699 -0.0041,0.2005 -0.0031,0.13643 -0.0021,0.13229 -0.0031,0.18293 -0.0021,0.1726 0.03253,1.58724 1.01784,-1.25812 0.513032,-0.61827 0.247015,-0.29964 0.366871,-0.43995 0.603653,-0.72789 0.381484,-0.46041 0.524727,-0.63289 1.454859,-1.75237 1.008724,-1.2113 0.963247,-1.16582 0.686263,-0.82682 0.764813,-0.92191 0.706932,-0.84336 1.029396,-1.25263 0.727604,-0.87643 0.7152,-0.85577 0.56224,-0.68626 0.566375,-0.68213 0.759952,-0.92085 z"
       id="path4994"
       inkscape:connector-curvature="0"
       sodipodi:nodetypes="ccccccccccccccccccccccccccccccccccccccccccccccccccccccccccccccccccccccccccccccccccccccccccccccccccc" />
    <path
       style="display:inline;opacity:1;fill:none;fill-rule:evenodd;stroke:#0d6f18;stroke-width:2;stroke-linecap:butt;stroke-linejoin:miter;stroke-miterlimit:4;stroke-dasharray:none;stroke-opacity:1"
       d="m 66.957832,101.41988 -1.481726,-0.53194 -0.272852,-0.0971 -0.376203,-0.1354 -0.328662,-0.11885 -0.287322,-0.10336 -0.361035,-0.12393 0.282133,-0.24545 0.347621,-0.289736 0.248047,-0.206705 0.361733,-0.289388 0.266652,-0.217043 0.305924,-0.239779 0.28112,-0.219107 0.208772,-0.163298 0.245981,-0.188103 0.297656,-0.225308 0.260448,-0.196372 0.376206,-0.276984 0.27905,-0.202573 0.307994,-0.223242 0.355534,-0.254246 0.525031,-0.361736 0.529167,-0.361735 0.516765,-0.343131 0.390673,-0.256315 0.386541,-0.24598 0.338997,-0.214974 0.365869,-0.227378 0.403077,-0.250113 0.477488,-0.285253 0.351401,-0.208774 0.5271,-0.303856 0.390673,-0.223242 0.487826,-0.272852 0.525031,-0.285255 0.359669,-0.192235 0.448551,-0.235646 0.434083,-0.225309 0.322461,-0.161229 0.272852,-0.134361 0.239779,-0.117821 0.218072,-0.106453 0.214974,-0.104386 0.242879,-0.11679 0.251148,-0.118856 0.233577,-0.108519 0.335899,-0.153998 0.34313,-0.156062 0.28112,-0.125057 0.174667,-0.07751 0.174665,-0.07441 0.173633,-0.07545 0.256315,-0.110588 0.280088,-0.11679 0.208772,-0.08785 0.255281,-0.104386 0.278021,-0.113689 0.285253,-0.11472 0.279053,-0.109554 0.324527,-0.126089 0.255281,-0.09715 0.302826,-0.114723 0.262514,-0.09612 0.267685,-0.09818 0.238746,-0.08682 0.25218,-0.08888 0.303858,-0.105421 0.413412,-0.141594 0.370004,-0.122989 0.265615,-0.08682 0.268719,-0.08578 0.274917,-0.08785 0.290423,-0.09095 0.270783,-0.08165 0.177768,-0.05478 0.26665,-0.07751 0.295589,-0.08888 0.293521,-0.08165 0.263552,-0.07338 0.218074,-0.05891 0.286288,-0.07855 0.312123,-0.08165 0.345199,-0.08992 0.206706,-0.05168 0.390673,-0.09508 0.33073,-0.08062 0.310059,-0.07131 0.265618,-0.05994 0.264584,-0.05994 0.318325,-0.06925 0.285255,-0.05995 0.232543,-0.04754 0.280088,-0.05788 0.51263,-0.100253 0.299722,-0.05478 0.435116,-0.07958 0.464934,-0.07252 -0.254096,0.291304 -0.211873,0.256315 -0.172598,0.209806 -0.263549,0.317294 -0.275952,0.332796 -0.152964,0.181901 -0.150895,0.18397 -0.159162,0.190169 -0.195337,0.236678 -0.13126,0.158128 -0.125055,0.150897 -0.146762,0.176731 -0.183967,0.222211 -0.181901,0.220141 -0.167434,0.199472 -0.192235,0.234609 -0.16123,0.19327 -0.211875,0.255283 -0.227375,0.274918 -0.173633,0.20774 -0.248047,0.298688 -0.29559,0.3576 -0.152961,0.183971 -0.18397,0.221173 -0.184999,0.224276 -0.143661,0.171567 -0.187068,0.226343 -0.239779,0.288353 -0.188103,0.226344 -0.146762,0.176733 -0.148828,0.181901 -0.150894,0.179835 -0.202573,0.245978 -0.291455,0.351401 -0.137458,0.16433 -0.134359,0.162264 -0.124023,0.149862 -0.160197,0.191204 -0.191204,0.23151 -0.226343,0.273884 -0.147794,0.177768 -0.197403,0.23771 -0.238747,0.287321 -0.180866,0.218075 -0.157096,0.189135 -0.164333,0.200506 -0.130223,0.156062 -0.495062,0.580843"
       id="path5038"
       inkscape:connector-curvature="0"
       sodipodi:nodetypes="cccccccccccccccccccccccccccccccccccccccccccccccccccccccccccccccccccccccccccccccccccccccccccccccccccccccccccccccccccccccccccccccccccccccccccccccccc" />
    <path
       style="display:inline;fill:none;fill-rule:evenodd;stroke:#0d6f18;stroke-width:2;stroke-linecap:butt;stroke-linejoin:miter;stroke-miterlimit:4;stroke-dasharray:none;stroke-opacity:1"
       d="m 90.315593,141.74563 1.644333,0.58758 1.204384,0.43411 1.449035,0.5232 1.502751,0.54157 6.731374,2.42775 9.6945,3.49747 11.59205,4.18165 10.96264,3.95325 9.48986,3.42305 4.43074,1.59783 2.76469,0.99839 1.34255,0.47956"
       id="path5104"
       inkscape:connector-curvature="0"
       sodipodi:nodetypes="ccccccccccccc" />
    <path
       style="display:inline;opacity:1;fill:none;fill-rule:evenodd;stroke:#0d6f18;stroke-width:2;stroke-linecap:butt;stroke-linejoin:miter;stroke-miterlimit:4;stroke-dasharray:none;stroke-opacity:1"
       d="m 129.096,92.133951 1.51101,0.742071 0.26459,0.142629 0.21911,0.117822 0.2191,0.119888 0.25012,0.136427 0.25528,0.14056 0.22428,0.127124 0.30592,0.174665 0.24701,0.14056 0.26148,0.151929 0.24392,0.144695 0.26561,0.158128 0.26562,0.160198 0.25942,0.15813 0.29249,0.180867 0.29972,0.187068 0.31729,0.202573 0.28836,0.185002 0.27285,0.176734 0.30592,0.20257 0.31936,0.213942 0.27492,0.187069 0.24185,0.165364 0.29042,0.200504 0.28732,0.20257 0.31006,0.221176 0.33073,0.237712 0.26665,0.195337 0.28525,0.210841 0.24495,0.183968 0.27492,0.206705 0.33176,0.255281 0.27905,0.21704 0.25322,0.199472 0.24804,0.196371 0.26562,0.21394 0.24598,0.200504 0.27802,0.227377 0.25632,0.21394 0.31212,0.263556 0.24391,0.2067 0.26355,0.22841 0.29146,0.25425 0.26458,0.23254 0.25115,0.22531 0.29145,0.26458 0.25322,0.23151 0.23771,0.22015 0.24598,0.23047 0.28835,0.27286 0.22428,0.21393 0.22117,0.21498 0.21085,0.20567 0.23874,0.23771 0.22944,0.22841 0.23978,0.24081 0.22738,0.23358 0.30696,0.3173 0.30902,0.32453 0.20257,0.21393 0.24392,0.26252 0.30282,0.3297 0.21187,0.23254 0.20051,0.22324 0.19327,0.21808 0.23254,0.26458 0.17053,0.19534 0.17467,0.2005 0.21498,0.25322 0.18603,0.22014 0.2036,0.24184 0.25839,0.31213 0.2129,0.26045 0.29559,0.3669 0.24082,0.30179 0.16639,0.21084 0.17984,0.23254 0.1974,0.25425 0.21187,0.27802 0.18707,0.24805 0.19017,0.25528 0.15813,0.21394 0.1602,0.22014 0.14469,0.19948 0.1664,0.23357 0.14573,0.20257 0.1881,0.26872 0.17053,0.24495 0.1757,0.25528 0.12403,0.1819 0.14882,0.21911 0.19431,0.29042 0.12609,0.19017 0.13642,0.2098 0.15193,0.23358 0.1695,0.26252 0.14779,0.23254 0.19017,0.30076 0.14677,0.23771 0.15089,0.24598 0.14366,0.23668 0.15296,0.25425 0.1416,0.23977 0.17983,0.30283 0.13229,0.22841 0.14676,0.25941 0.154,0.26872 0.15089,0.27079 0.12713,0.23047 0.13126,0.23772 0.10852,0.20153 0.15503,0.28939 0.0982,0.185 0.12506,0.23668 0.13126,0.25322 0.12712,0.24701 0.12299,0.24288 0.10749,0.21601 0.11885,0.23874 0.1354,0.27905 0.14056,0.28939 0.13022,0.27492 0.11989,0.25528 0.12092,0.26045 0.12506,0.27079 0.10852,0.24184 0.11576,0.25735 0.13125,0.29765 0.12403,0.28836 0.19327,0.45372 0.13952,0.33486 0.0837,0.20051 0.0951,0.23564 0.12298,0.31109 0.14056,0.35244 0.092,0.24184 0.10542,0.27182 0.10128,0.26975 0.0868,0.23565 0.0992,0.27078 0.10955,0.30489 0.0982,0.27492 0.092,0.26562 0.0868,0.24701 0.0827,0.25012 0.0827,0.24494 0.0816,0.24908 0.10025,0.30592 0.0951,0.29973 0.0816,0.26045 0.0899,0.29145 0.12816,0.42788 0.11576,0.39688 0.0868,0.30179 0.0754,0.26458 0.0868,0.31833 0.11679,0.43822 0.0796,0.30179 0.0372,0.14056 0.0744,0.29455 0.0868,0.34933 0.0455,0.18707 0.061,0.25735 0.0662,0.27389 0.0455,0.2036 0.0661,0.28836 0.0589,0.26458 0.0496,0.23668 0.0413,0.18603 0.0506,0.24081 0.0496,0.24805 0.0393,0.19431 0.0393,0.19843 0.0311,0.17109 0.21435,1.07792 -3.7903,-1.29965 -12.13053,-4.37493 -10.98228,-3.96048 -6.01259,-2.16855 -8.88525,-3.20535 -8.628,-3.11182 -7.03775,-2.53885 -1.58441,-0.57149 -1.65895,-0.59927"
       id="path5124"
       inkscape:connector-curvature="0"
       sodipodi:nodetypes="ccccccccccccccccccccccccccccccccccccccccccccccccccccccccccccccccccccccccccccccccccccccccccccccccccccccccccccccccccccccccccccccccccccccccccccccccccccccccccccccccccccccccccccccccccccccccc" />
    <path
       style="display:inline;opacity:1;fill:none;fill-rule:evenodd;stroke:#0d6f18;stroke-width:2;stroke-linecap:butt;stroke-linejoin:miter;stroke-miterlimit:4;stroke-dasharray:none;stroke-opacity:1"
       d="m 192.27353,139.78169 -0.12815,-1.62884 -0.0269,-0.29869 -0.0269,-0.29249 -0.0434,-0.44959 -0.0279,-0.28835 -0.03,-0.27802 -0.0383,-0.3669 -0.0382,-0.34314 -0.0393,-0.34933 -0.0413,-0.34933 -0.0403,-0.33693 -0.0548,-0.42995 -0.0517,-0.39481 -0.0331,-0.25011 -0.0351,-0.25321 -0.0383,-0.26976 -0.0393,-0.27595 -0.0331,-0.22117 -0.0403,-0.27596 -0.0372,-0.24288 -0.0341,-0.21704 -0.0351,-0.2191 -0.0279,-0.18707 -0.0362,-0.21498 -0.03,-0.19223 -0.0341,-0.20154 -0.0372,-0.22324 -0.0403,-0.23565 -0.032,-0.18087 -0.031,-0.17983 -0.031,-0.1757 -0.0661,-0.36173 -0.0734,-0.39895 -0.0537,-0.27802 -0.0331,-0.17776 -0.03,-0.15503 -0.0372,-0.18087 -0.0279,-0.14779 -0.03,-0.1509 -0.0403,-0.2005 -0.0465,-0.23151 -0.0548,-0.25839 -0.0424,-0.20463 -0.0424,-0.19638 -0.0599,-0.27905 -0.0476,-0.22014 -0.0486,-0.22118 -0.0599,-0.26561 -0.0558,-0.25115 -0.0599,-0.25735 -0.0506,-0.22117 -0.0527,-0.22738 -0.0631,-0.25942 -0.0641,-0.27181 -0.0527,-0.21704 -0.0641,-0.25839 -0.0692,-0.27285 -0.0837,-0.33176 -0.0579,-0.23048 -0.0527,-0.20257 -0.0558,-0.21084 -0.0537,-0.2036 -0.0517,-0.19431 -0.0868,-0.32246 -0.0889,-0.32039 -0.0827,-0.30179 -0.0858,-0.29973 -0.0827,-0.29249 -0.0775,-0.26871 -0.0806,-0.27079 -0.0599,-0.20774 -0.0486,-0.16019 -0.0785,-0.26562 -0.0858,-0.28319 -0.0837,-0.26871 -0.0682,-0.22325 -0.0631,-0.19843 -0.0796,-0.25425 -0.0744,-0.22944 -0.06,-0.18914 -0.0661,-0.20154 -0.0724,-0.22324 -0.0992,-0.30076 -0.0754,-0.22531 -0.0786,-0.23461 -0.0868,-0.25528 -0.0889,-0.25942 -0.094,-0.26871 -0.091,-0.25942 -0.11679,-0.33176 -0.0899,-0.25115 -0.0889,-0.24598 -0.0837,-0.23151 -0.093,-0.24908 -0.12713,-0.34106 -0.093,-0.25012 -0.10956,-0.28939 -0.11679,-0.30075 -0.0899,-0.23668 -0.10542,-0.26768 -0.0827,-0.20981 -0.10439,-0.26148 -0.10542,-0.26252 -0.0899,-0.22117 -0.0941,-0.23255 -0.11369,-0.27802 -0.11369,-0.26871 -0.0992,-0.24082 -0.10128,-0.23978 -0.12092,-0.28112 -0.13333,-0.31212 -0.11575,-0.26459 -0.12093,-0.27388 -0.0899,-0.20774 -0.12093,-0.27078 -0.11368,-0.25218 -0.12506,-0.27286 -0.11576,-0.25631 -0.0971,-0.20877 -0.11989,-0.25839 -0.12402,-0.26251 -0.13436,-0.28422 -0.16846,-0.35864 -0.12609,-0.25735 -0.11576,-0.23564 -0.11782,-0.24598 -0.13436,-0.26562 -0.13643,-0.27595 -0.12919,-0.25631 -0.14263,-0.28216 -0.18706,-0.3669 -0.15297,-0.29559 -0.15503,-0.29456 -0.16329,-0.31005 -0.17777,-0.33383 -0.14676,-0.27492 -0.16537,-0.30283 -0.19016,-0.34933 -0.18914,-0.33796 -0.1819,-0.3266 -0.18914,-0.33486 -0.22427,-0.39377 -0.20464,-0.35244 -0.17467,-0.29972 -0.19844,-0.339 -0.20153,-0.337963 -0.1757,-0.294555 -0.16537,-0.270785 -0.16226,-0.265618 -0.14986,-0.243912 -0.13023,-0.211873 -0.17466,-0.278019 -0.1509,-0.241847 -0.15916,-0.251145 -0.13953,-0.218075 -0.19327,-0.301792 -0.11989,-0.185002 -0.16433,-0.25218 -0.20567,-0.314192 -0.1633,-0.247015 -0.17363,-0.260448 -0.1912,-0.286287 -0.18707,-0.274918 -0.17364,-0.255283 -0.17673,-0.257347 -0.23151,-0.332799 -0.1943,-0.275952 -0.20257,-0.287319 -0.18294,-0.256315 -0.14366,-0.200507 -0.26975,-0.378269 -0.27802,-0.380339 -0.19947,-0.270785 -0.1633,-0.219109 -0.22841,-0.306957 -0.23668,-0.31316 -0.20464,-0.269751 -0.18707,-0.244946 -0.20773,-0.268716 -0.21808,-0.28112 -0.23874,-0.304893 -0.24598,-0.310057 -0.20671,-0.258381 -0.1974,-0.244949 -0.23358,-0.289388 -0.17673,-0.21704 -0.17467,-0.211873 -0.22738,-0.274918 -0.1788,-0.213942 -0.12816,-0.153996 -0.16536,-0.196368 -0.13642,-0.163298 -0.17777,-0.206706 -0.19844,-0.234611 -0.21497,-0.248047 -0.23668,-0.270786 -0.21498,-0.247012 -0.17983,-0.204639 -0.154,-0.174668 -0.31832,-0.355533 -0.14575,-0.162048 -0.37291,-0.410974 -0.29233,-0.317172 -0.36979,-0.399026 -0.39025,-0.418025 -0.48088,-0.504265 -0.49842,-0.514492 -0.62411,-0.632886 -0.49696,-0.498417 -0.70158,-0.685504 -0.52472,-0.507185 -0.67966,-0.641657 -0.52327,-0.485262 -0.56565,-0.514492 -0.67381,-0.605116 -0.48672,-0.426794 -0.45603,-0.397565 -0.51742,-0.442873 -0.52618,-0.442876 -0.48234,-0.399023 -0.49842,-0.407794 -0.49841,-0.40195 -0.54373,-0.432641 -0.69281,-0.540803 -0.52911,-0.406334 -0.4648,-0.350793 -0.53934,-0.401947 -0.62558,-0.458951 -0.60804,-0.437029 -0.45457,-0.321558 -0.62996,-0.439949 -0.56126,-0.385871 -0.62558,-0.419489 -0.51011,-0.339098 -0.70889,-0.458952 -0.6592,-0.422412 -0.55249,-0.346406 -0.63581,-0.391716 -0.58027,-0.349329 -0.53203,-0.317175 -0.49403,-0.28794 -0.51011,-0.295252 -0.5525,-0.312787 -0.63142,-0.352253 -0.3961,-0.216321 -0.41657,-0.226552 -0.66943,-0.35664 -0.6475,-0.337635 -0.48234,-0.247015 -0.49695,-0.251402 -0.46041,-0.228015 -0.48673,-0.238244 -0.4531,-0.217784 -0.38587,-0.182702 -1.68289,-0.703848"
       id="path5235"
       inkscape:connector-curvature="0"
       sodipodi:nodetypes="cccccccccccccccccccccccccccccccccccccccccccccccccccccccccccccccccccccccccccccccccccccccccccccccccccccccccccccccccccccccccccccccccccccccccccccccccccccccccccccccccccccccccccccccccccccccccccccccccccccccccccccccccccccccccccccccccccccccccccccccccccccccccccccccc" />
  </g>
  <g
     inkscape:groupmode="layer"
     id="layer2"
     inkscape:label="inner nodes"
     style="display:inline"
     sodipodi:insensitive="true">
    <circle
       style="display:inline;opacity:1;fill:#fa8424;fill-opacity:1;stroke:#fa8424;stroke-width:9.91436672;stroke-miterlimit:4;stroke-dasharray:none;stroke-opacity:0.99944171"
       id="path4784"
       cx="32.279163"
       cy="104.38334"
       r="5.8365669" />
    <circle
       style="display:inline;opacity:1;fill:#fa8424;fill-opacity:1;stroke:#fa8424;stroke-width:9.91436672;stroke-miterlimit:4;stroke-dasharray:none;stroke-opacity:0.99944171"
       id="path4784-3"
       cx="78.722939"
       cy="121.08418"
       r="5.8365669" />
    <circle
       style="display:inline;opacity:1;fill:#fa8424;fill-opacity:1;stroke:#fa8424;stroke-width:9.91436672;stroke-miterlimit:4;stroke-dasharray:none;stroke-opacity:0.99944171"
       id="path4784-6"
       cx="175.41876"
       cy="155.9771"
       r="5.8365669" />
    <circle
       style="display:inline;opacity:1;fill:#fa8424;fill-opacity:1;stroke:#fa8424;stroke-width:9.91436672;stroke-miterlimit:4;stroke-dasharray:none;stroke-opacity:0.99944171"
       id="path4784-7"
       cx="117.31449"
       cy="71.775368"
       r="5.8365669" />
    <circle
       style="display:inline;opacity:1;fill:#fa8424;fill-opacity:1;stroke:#fa8424;stroke-width:9.91436672;stroke-miterlimit:4;stroke-dasharray:none;stroke-opacity:0.99944171"
       id="path4784-5"
       cx="32.059982"
       cy="174.01413"
       r="5.8365669" />
    <circle
       style="display:inline;opacity:1;fill:#fa8424;fill-opacity:1;stroke:#fa8424;stroke-width:9.91436672;stroke-miterlimit:4;stroke-dasharray:none;stroke-opacity:0.99944171"
       id="path4784-6-3"
       cx="152.58159"
       cy="201.25296"
       r="5.8365669" />
  </g>
  <g
     inkscape:groupmode="layer"
     id="layer6"
     inkscape:label="skeleton"
     style="display:inline"
     sodipodi:insensitive="true">
    <path
       style="display:inline;fill:none;fill-rule:evenodd;stroke:#fa8424;stroke-width:5.0358243;stroke-linecap:butt;stroke-linejoin:miter;stroke-miterlimit:4;stroke-dasharray:none;stroke-opacity:0.99944171"
       d="M 119.10808,70.818942 31.402221,175.01597"
       id="path4821"
       inkscape:connector-curvature="0" />
    <path
       style="display:inline;fill:none;fill-rule:evenodd;stroke:#fa8424;stroke-width:5;stroke-linecap:butt;stroke-linejoin:miter;stroke-miterlimit:4;stroke-dasharray:none;stroke-opacity:0.99944171"
       d="M 32.179252,104.67285 175.30208,156.12223"
       id="path4823"
       inkscape:connector-curvature="0" />
    <path
       style="fill:none;fill-rule:evenodd;stroke:#fa8424;stroke-width:5;stroke-linecap:butt;stroke-linejoin:miter;stroke-miterlimit:4;stroke-dasharray:none;stroke-opacity:0.99944171"
       d="M 32.366339,174.26983 C 86.622053,261.07897 155.84486,197.843 155.84486,197.843"
       id="path4898"
       inkscape:connector-curvature="0" />
  </g>
</svg>
